<svg width="24" height="24" viewBox="0 0 24 24" fill="none" xmlns="http://www.w3.org/2000/svg">
<path d="M21 17.25H19.75V11C19.7474 9.2393 19.1461 7.53182 18.0449 6.15801C16.9436 4.78419 15.4079 3.82572 13.69 3.44C13.7253 3.29584 13.7455 3.14836 13.75 3C13.75 2.53587 13.5656 2.09075 13.2374 1.76256C12.9092 1.43437 12.4641 1.25 12 1.25C11.5359 1.25 11.0908 1.43437 10.7626 1.76256C10.4344 2.09075 10.25 2.53587 10.25 3C10.255 3.148 10.275 3.296 10.31 3.44C8.59207 3.82572 7.05637 4.78419 5.95514 6.15801C4.85391 7.53182 4.25261 9.2393 4.25 11V17.25H3C2.80109 17.25 2.61032 17.329 2.46967 17.4697C2.32902 17.6103 2.25 17.8011 2.25 18C2.25 18.1989 2.32902 18.3897 2.46967 18.5303C2.61032 18.671 2.80109 18.75 3 18.75H8.25V19C8.25 19.9946 8.64509 20.9484 9.34835 21.6517C10.0516 22.3549 11.0054 22.75 12 22.75C12.9946 22.75 13.9484 22.3549 14.6517 21.6517C15.3549 20.9484 15.75 19.9946 15.75 19V18.75H21C21.1989 18.75 21.3897 18.671 21.5303 18.5303C21.671 18.3897 21.75 18.1989 21.75 18C21.75 17.8011 21.671 17.6103 21.5303 17.4697C21.3897 17.329 21.1989 17.25 21 17.25ZM14.25 19C14.25 19.5967 14.0129 20.169 13.591 20.591C13.169 21.0129 12.5967 21.25 12 21.25C11.4033 21.25 10.831 21.0129 10.409 20.591C9.98705 20.169 9.75 19.5967 9.75 19V18.75H14.25V19ZM15 17.25H5.75V11C5.75 9.3424 6.40848 7.75269 7.58058 6.58058C8.75269 5.40848 10.3424 4.75 12 4.75C13.6576 4.75 15.2473 5.40848 16.4194 6.58058C17.5915 7.75269 18.25 9.3424 18.25 11V17.25H15Z" fill="#2E3137"/>
</svg>
