<svg width="24" height="24" viewBox="0 0 24 24" fill="none" xmlns="http://www.w3.org/2000/svg">
<path d="M20 4.25H4C3.53668 4.25263 3.09309 4.43784 2.76546 4.76546C2.43784 5.09309 2.25263 5.53668 2.25 6V18C2.25263 18.4633 2.43784 18.9069 2.76546 19.2345C3.09309 19.5622 3.53668 19.7474 4 19.75H20C20.4633 19.7474 20.9069 19.5622 21.2345 19.2345C21.5622 18.9069 21.7474 18.4633 21.75 18V6C21.7474 5.53668 21.5622 5.09309 21.2345 4.76546C20.9069 4.43784 20.4633 4.25263 20 4.25ZM19 5.75L12.91 10.38C12.6885 10.5344 12.425 10.6172 12.155 10.6172C11.885 10.6172 11.6215 10.5344 11.4 10.38L5.16 5.75H19ZM20 18.25H4C3.9337 18.25 3.87011 18.2237 3.82322 18.1768C3.77634 18.1299 3.75 18.0663 3.75 18V6.57L10.46 11.57C10.9417 11.9087 11.5162 12.0904 12.105 12.0904C12.6938 12.0904 13.2683 11.9087 13.75 11.57L20.25 6.63V18C20.25 18.0663 20.2237 18.1299 20.1768 18.1768C20.1299 18.2237 20.0663 18.25 20 18.25Z" fill="#2E3137"/>
</svg>
