<svg width="24" height="24" viewBox="0 0 24 24" fill="none" xmlns="http://www.w3.org/2000/svg">
<g clip-path="url(#clip0_1_41)">
<path d="M16.3401 3.83003C15.3392 3.83973 14.372 4.19273 13.6001 4.83003C12.9468 5.33979 12.4027 5.97573 12.0001 6.70003C11.6031 5.95774 11.0586 5.30438 10.4001 4.78003C9.62825 4.14273 8.66101 3.78973 7.6601 3.78003C6.97786 3.79033 6.30495 3.94016 5.68278 4.2203C5.06062 4.50043 4.50238 4.90494 4.04243 5.40893C3.58247 5.91291 3.23053 6.5057 3.00828 7.15081C2.78603 7.79592 2.69817 8.47969 2.7501 9.16003C2.7501 12.45 5.3901 14.69 9.3801 18.09L11.6201 20C11.7236 20.0956 11.8592 20.1487 12.0001 20.1487C12.141 20.1487 12.2766 20.0956 12.3801 20L14.6201 18.07C18.6201 14.67 21.2501 12.43 21.2501 9.14003C21.2921 8.46533 21.1968 7.78911 20.9701 7.15226C20.7433 6.51542 20.3898 5.93117 19.9309 5.43483C19.4719 4.93849 18.9171 4.54037 18.2999 4.26454C17.6827 3.98871 17.016 3.84089 16.3401 3.83003Z" stroke="#2E3137" stroke-width="1.5" stroke-miterlimit="10"/>
</g>
<defs>
<clipPath id="clip0_1_41">
<rect width="24" height="24" fill="white"/>
</clipPath>
</defs>
</svg>
