<svg width="24" height="24" viewBox="0 0 24 24" fill="none" xmlns="http://www.w3.org/2000/svg">
<path fill-rule="evenodd" clip-rule="evenodd" d="M5 6.75H19C19.1989 6.75 19.3897 6.67098 19.5303 6.53033C19.671 6.38968 19.75 6.19891 19.75 6C19.75 5.80109 19.671 5.61032 19.5303 5.46967C19.3897 5.32902 19.1989 5.25 19 5.25H5C4.80109 5.25 4.61032 5.32902 4.46967 5.46967C4.32902 5.61032 4.25 5.80109 4.25 6C4.25 6.19891 4.32902 6.38968 4.46967 6.53033C4.61032 6.67098 4.80109 6.75 5 6.75ZM19 11.25H5C4.80109 11.25 4.61032 11.329 4.46967 11.4697C4.32902 11.6103 4.25 11.8011 4.25 12C4.25 12.1989 4.32902 12.3897 4.46967 12.5303C4.61032 12.671 4.80109 12.75 5 12.75H19C19.1989 12.75 19.3897 12.671 19.5303 12.5303C19.671 12.3897 19.75 12.1989 19.75 12C19.75 11.8011 19.671 11.6103 19.5303 11.4697C19.3897 11.329 19.1989 11.25 19 11.25ZM5 17.25H19C19.1989 17.25 19.3897 17.329 19.5303 17.4697C19.671 17.6103 19.75 17.8011 19.75 18C19.75 18.1989 19.671 18.3897 19.5303 18.5303C19.3897 18.671 19.1989 18.75 19 18.75H5C4.80109 18.75 4.61032 18.671 4.46967 18.5303C4.32902 18.3897 4.25 18.1989 4.25 18C4.25 17.8011 4.32902 17.6103 4.46967 17.4697C4.61032 17.329 4.80109 17.25 5 17.25Z" fill="#2E3137"/>
</svg>
