<svg width="20" height="20" viewBox="0 0 20 20" fill="none" xmlns="http://www.w3.org/2000/svg">
<path d="M6.66665 9.99993L9.16665 12.4999L14.1667 7.49993M17.7083 3.14993C17.7083 2.92891 17.6205 2.71695 17.4642 2.56067C17.308 2.40439 17.096 2.31659 16.875 2.31659H14.2917C13.4784 2.28852 12.6695 2.44573 11.926 2.77634C11.1825 3.10695 10.5239 3.6023 9.99998 4.22493C9.47857 3.59774 8.82107 3.09764 8.07742 2.76264C7.33377 2.42764 6.52355 2.26654 5.70832 2.29159H3.14998C2.92897 2.29159 2.71701 2.37939 2.56073 2.53567C2.40445 2.69195 2.31665 2.90391 2.31665 3.12493V16.8499C2.31665 17.0709 2.40445 17.2829 2.56073 17.4392C2.71701 17.5955 2.92897 17.6833 3.14998 17.6833H11.7167C12.5035 17.6833 13.2826 17.5283 14.0096 17.2272C14.7365 16.9261 15.397 16.4847 15.9534 15.9283C16.5098 15.372 16.9511 14.7114 17.2522 13.9845C17.5533 13.2576 17.7083 12.4784 17.7083 11.6916V3.14993Z" stroke="#2E3137" stroke-width="1.25" stroke-linecap="round" stroke-linejoin="round"/>
</svg>
