<svg width="24" height="24" viewBox="0 0 24 24" fill="none" xmlns="http://www.w3.org/2000/svg">
<path d="M8 7.00005H16M8 11H16M8 15H12M19.85 21L17.25 19L15.39 20.6901C15.2082 20.8477 14.9756 20.9344 14.735 20.9344C14.4944 20.9344 14.2618 20.8477 14.08 20.6901L12 19L9.92 20.73C9.73818 20.8877 9.50562 20.9744 9.265 20.9744C9.02438 20.9744 8.79182 20.8877 8.61 20.73L6.75 19L4.15 21C4.11286 21.0279 4.06869 21.0449 4.02245 21.049C3.97621 21.0532 3.92972 21.0444 3.8882 21.0237C3.84667 21.0029 3.81175 20.971 3.78734 20.9315C3.76293 20.892 3.75 20.8465 3.75 20.8V3.80005C3.75 3.53483 3.85536 3.28048 4.04289 3.09294C4.23043 2.90541 4.48478 2.80005 4.75 2.80005H19.22C19.4852 2.80005 19.7396 2.90541 19.9271 3.09294C20.1146 3.28048 20.22 3.53483 20.22 3.80005V20.8C20.2168 20.8418 20.2032 20.8821 20.1804 20.9172C20.1577 20.9523 20.1264 20.9811 20.0896 21.0011C20.0528 21.021 20.0115 21.0313 19.9697 21.0311C19.9278 21.0309 19.8867 21.0203 19.85 21Z" stroke="#2E3137" stroke-width="1.5" stroke-linecap="round" stroke-linejoin="round"/>
</svg>
