<svg width="14" height="14" viewBox="0 0 14 14" fill="none" xmlns="http://www.w3.org/2000/svg">
<path d="M12.4698 5.71787C12.3916 5.47173 12.2455 5.25271 12.0482 5.08609C11.8509 4.91946 11.6105 4.81204 11.3548 4.77619L9.19417 4.48156L8.2236 2.51734C8.11015 2.28705 7.93449 2.09311 7.71651 1.95749C7.49852 1.82188 7.24692 1.75 6.99019 1.75C6.73347 1.75 6.48187 1.82188 6.26388 1.95749C6.0459 2.09311 5.87023 2.28705 5.75678 2.51734L4.78622 4.48156L2.61981 4.79353C2.36934 4.83381 2.13482 4.94233 1.94198 5.10716C1.74914 5.27199 1.60544 5.48677 1.52665 5.72791C1.44786 5.96905 1.43703 6.22723 1.49535 6.47413C1.55366 6.72102 1.67887 6.94707 1.85723 7.12747L3.42283 8.65263L3.05309 10.8364C3.01849 11.0342 3.02767 11.2373 3.07997 11.4313C3.13229 11.6252 3.22646 11.8054 3.35587 11.959C3.48528 12.1127 3.64679 12.2361 3.82904 12.3206C4.01128 12.4051 4.20983 12.4487 4.41071 12.4482C4.63385 12.4481 4.85373 12.3947 5.05197 12.2922L6.9873 11.2754L8.92259 12.2922C9.15726 12.413 9.42139 12.4648 9.6843 12.4412C9.94713 12.4177 10.1979 12.32 10.4074 12.1593C10.6057 12.0069 10.7586 11.8029 10.8492 11.5697C10.9399 11.3364 10.9649 11.0829 10.9215 10.8364L10.5517 8.68152L12.1405 7.12747C12.321 6.94638 12.4475 6.71852 12.5057 6.46952C12.5638 6.2205 12.5514 5.9602 12.4698 5.71787Z" fill="#FFC300"/>
</svg>
